SplineFontDB: 3.0
FontName: Seven
FullName: Seven
FamilyName: Seven
Weight: Book
Copyright: 
Version: 1.0
ItalicAngle: 0
UnderlinePosition: -103
UnderlineWidth: 102
Ascent: 1536
Descent: 512
sfntRevision: 0x00010000
LayerCount: 2
Layer: 0 0 "Back"  1
Layer: 1 0 "Fore"  0
NeedsXUIDChange: 1
XUID: [1021 14 500265001 13199395]
FSType: 4
OS2Version: 2
OS2_WeightWidthSlopeOnly: 0
OS2_UseTypoMetrics: 1
CreationTime: 1315932002
ModificationTime: 1316085507
PfmFamily: 81
TTFWeight: 400
TTFWidth: 5
LineGap: 0
VLineGap: 0
Panose: 0 0 0 0 0 0 0 0 0 0
OS2TypoAscent: 0
OS2TypoAOffset: 1
OS2TypoDescent: 0
OS2TypoDOffset: 1
OS2TypoLinegap: 0
OS2WinAscent: 0
OS2WinAOffset: 1
OS2WinDescent: -163
OS2WinDOffset: 1
HheadAscent: -427
HheadAOffset: 1
HheadDescent: 188
HheadDOffset: 1
OS2SubXSize: 1434
OS2SubYSize: 1331
OS2SubXOff: 0
OS2SubYOff: 287
OS2SupXSize: 1434
OS2SupYSize: 1331
OS2SupXOff: 0
OS2SupYOff: 977
OS2StrikeYSize: 102
OS2StrikeYPos: 512
OS2Vendor: 'pyrs'
OS2CodePages: 00000001.00000000
OS2UnicodeRanges: 80000003.00000000.00000000.00000000
MarkAttachClasses: 1
DEI: 91125
ShortTable: maxp 16
  1
  0
  64
  99
  3
  0
  0
  1
  0
  0
  0
  0
  0
  0
  0
  0
EndShort
LangName: 1033 "" "" "Regular" "1.000;pyrs;Seven" "" "" "" "" "" "" "" "" "" "" "" "" "" "" "Seven" 
Encoding: UnicodeBmp
Compacted: 1
UnicodeInterp: none
NameList: Adobe Glyph List
DisplaySize: -48
AntiAlias: 1
FitToEm: 1
WidthSeparation: 185
WinInfo: 0 19 5
BeginPrivate: 0
EndPrivate
Grid
263 2560 m 0
 263 -1536 l 0
54 2560 m 0
 54 -1536 l 0
829.000030518 2560 m 0
 829.000030518 -1536 l 0
462.5 2560 m 0
 462.5 -1536 l 0
672.5 2560 m 0
 672.5 -1536 l 0
-2048 1866.40039062 m 5
 -2.42133523055e-07 1865.37841145 2047.99999995 1866.2041114 4096 1866.40039062 c 5
EndSplineSet
BeginChars: 65540 60

StartChar: H
Encoding: 72 72 0
Width: 922
Flags: HW
LayerCount: 2
Fore
SplineSet
830 1866 m 1
 830 0 l 1
 590 0 l 1
 590 850 l 1
 330 850 l 1
 330 0 l 1
 90 0 l 1
 90 1866 l 1
 330 1866 l 1
 330 1063 l 1
 590 1063 l 1
 590 1866 l 1
 830 1866 l 1
EndSplineSet
EndChar

StartChar: A
Encoding: 65 65 1
Width: 810
Flags: HW
LayerCount: 2
Fore
SplineSet
255 1866 m 1
 549 1866 l 1
 790 0 l 1
 546 0 l 1
 517 315 l 1
 274 315 l 1
 242 0 l 1
 16 0 l 1
 255 1866 l 1
292 494 m 1
 496 494 l 1
 410 1452 l 1
 397 1452 l 1
 292 494 l 1
EndSplineSet
EndChar

StartChar: B
Encoding: 66 66 2
Width: 912
Flags: HW
LayerCount: 2
Fore
SplineSet
864 532 m 0
 864 185.400390625 779 0 509 0 c 2
 90 0 l 1
 90 1866 l 1
 467 1866 l 2
 731.286132812 1866 791 1666.22753906 791 1393 c 0
 791 1145.40039062 766.112304688 1057.28613281 623 1018 c 1
 625 1006 l 1
 802.298828125 965.942382812 864 836.400390625 864 532 c 0
402 162 m 2
 584.404296875 162 600 272.400390625 600 532 c 0
 600 827.400390625 570 922 433 922 c 2
 330 922 l 1
 330 162 l 1
 402 162 l 2
547 1393 m 0
 547 1607.40039062 531 1718 406 1718 c 2
 330 1718 l 1
 330 1083 l 1
 433 1083 l 2
 541.8515625 1083 547 1193.40039062 547 1393 c 0
EndSplineSet
EndChar

StartChar: O
Encoding: 79 79 3
Width: 925
Flags: HW
LayerCount: 2
Fore
SplineSet
454.295898438 1737 m 256
 365.360351562 1737 345.849609375 1666.76464844 334.295898438 1583 c 129
 310.233398438 1388.46191406 319.849609375 1171.85058594 317.295898438 938 c 257
 323.870117188 668.448242188 297.655273438 400.052734375 357.795898438 197.5 c 129
 375.833984375 157.3515625 401.47265625 135 454.295898438 135 c 256
 544.044921875 135 562.5703125 206.356445312 574.795898438 290.5 c 129
 600.004882812 484.681640625 589.45703125 703.78515625 592.295898438 938 c 257
 585.943359375 1207.15527344 611.739257812 1473.89648438 551.295898438 1675.5 c 129
 533.727539062 1715.90820312 507.079101562 1737 454.295898438 1737 c 256
852.295898438 938 m 256
 852.295898438 514.396484375 883.795898438 -35 454.295898438 -35 c 256
 31.7958984375 -35 57.2958984375 487.396484375 57.2958984375 938 c 256
 57.2958984375 1384.39648438 46.7958984375 1909 454.295898438 1909 c 256
 892.795898438 1909 852.295898438 1390.39648438 852.295898438 938 c 256
EndSplineSet
EndChar

StartChar: U
Encoding: 85 85 4
Width: 915
Flags: HW
LayerCount: 2
Fore
SplineSet
320 441 m 1
 325.599609375 277.844726562 313.001953125 135 452 135 c 1
 456 135 l 1
 598.001953125 135 588.268554688 279.768554688 596 441 c 1
 596 1866 l 1
 829 1866 l 1
 829 474 l 2
 829.493164062 168.561523438 767.41015625 -50.4833984375 454 -35 c 257
 144.245117188 -35 79 158.611328125 79 474 c 2
 79 1866 l 1
 320 1866 l 1
 320 441 l 1
EndSplineSet
EndChar

StartChar: L
Encoding: 76 76 5
Width: 708
Flags: HW
LayerCount: 2
Fore
SplineSet
352 1866 m 1
 352 160 l 1
 719 160 l 1
 719 0 l 1
 90 0 l 1
 90 1866 l 1
 352 1866 l 1
EndSplineSet
EndChar

StartChar: I
Encoding: 73 73 6
Width: 422
Flags: HW
LayerCount: 2
Fore
SplineSet
330 1866 m 1
 330 0 l 1
 90 0 l 1
 90 1866 l 1
 330 1866 l 1
EndSplineSet
EndChar

StartChar: G
Encoding: 71 71 7
Width: 913
Flags: HW
LayerCount: 2
Fore
SplineSet
456.379882812 -35 m 0
 46.3798828125 -35 59.3798828125 429 59.3798828125 938 c 256
 59.3798828125 1404 31.3798828125 1909 456.379882812 1909 c 0
 814.379882812 1909 839.354492188 1578.40625 791.379882812 1233 c 1
 569.379882812 1233 l 1
 579.209960938 1381.59277344 594.103515625 1526.99023438 564.879882812 1642 c 128
 548.37109375 1706.97167969 524.056640625 1755 454.379882812 1755 c 0
 369.150390625 1755 348.291015625 1675.29492188 336.879882812 1584 c 128
 314.734375 1406.83300781 319.379882812 1218.4453125 319.379882812 989 c 0
 319.379882812 735.330078125 314.732421875 506.293945312 345.879882812 311.5 c 128
 363.379882812 202.051757812 379.850585938 127 477.379882812 127 c 0
 624.390625 127 610.379882812 324 610.379882812 455 c 2
 608.379882812 806 l 1
 434.379882812 806 l 1
 434.379882812 976 l 1
 837.379882812 976 l 1
 837.379882812 0 l 1
 792.379882812 0 l 1
 723.379882812 147 l 1
 672.862304688 35.6318359375 602.779296875 -35 456.379882812 -35 c 0
EndSplineSet
EndChar

StartChar: M
Encoding: 77 77 8
Width: 1131
Flags: HW
LayerCount: 2
Fore
SplineSet
716 1866 m 1
 1039 1866 l 1
 1039 0 l 1
 807 0 l 1
 813 1393 l 1
 801 1393 l 1
 651 0 l 1
 477 0 l 1
 307 1371 l 1
 295 1371 l 1
 301 0 l 1
 90 0 l 1
 90 1866 l 1
 403 1866 l 1
 557 788 l 1
 569 788 l 1
 716 1866 l 1
EndSplineSet
EndChar

StartChar: a
Encoding: 97 97 9
Width: 788
Flags: HW
LayerCount: 2
Fore
SplineSet
363 1358 m 0
 515.98046875 1358 648 1305.18652344 648 1157 c 2
 648 209 l 2
 648 157.848632812 664.391601562 131 718 131 c 0
 739.015625 131 777 139 777 139 c 1
 777 6 l 1
 738.515625 -4.0390625 694.045898438 -14 648 -14 c 0
 552.194335938 -14 502.7265625 16.23828125 470 76 c 1
 430.540039062 22.19140625 368.547851562 -29 275 -29 c 0
 155.73828125 -29 54 74.2998046875 54 222.299804688 c 2
 54 464.299804688 l 2
 54 680.299804688 180.0625 751.211914062 317.5 803 c 128
 371.62890625 823.396484375 439 850.763671875 439 922 c 2
 439 1097.29980469 l 6
 439 1191.29980469 399.994140625 1228 359 1228 c 4
 292.766601562 1228 268.1875 1153.47851562 268.1875 1061.3203125 c 4
 268.1875 1012.99609375 274.9453125 952.822265625 286 903 c 1
 95 903 l 1
 80.345703125 967.85546875 73.3837890625 1024.93652344 73.3837890625 1074.76464844 c 0
 73.3837890625 1274.86132812 185.661132812 1358 363 1358 c 0
439 752 m 1
 309.6796875 671.703125 262.2734375 613.991210938 263 414 c 2
 263.5 276.299804688 l 2
 263.5 196.405273438 266.458984375 102 347 102 c 0
 401.985351562 102 439 136.299804688 439 278.299804688 c 2
 439 752 l 1
EndSplineSet
EndChar

StartChar: r
Encoding: 114 114 10
Width: 672
Flags: HW
LayerCount: 2
Fore
SplineSet
390 1208 m 0
 302.31640625 1208 288 1086.20019531 288 1038 c 2
 288 0 l 1
 79 0 l 1
 79 1333 l 1
 262 1333 l 1
 263 1149 l 1
 300.35546875 1263.71191406 363.635742188 1358 477 1358 c 0
 591.220703125 1358 623.891601562 1232.0703125 623.891601562 1090.90429688 c 0
 623.891601562 965.952148438 598.294921875 829.0625 581 757 c 1
 405 757 l 1
 412.990234375 782.075195312 444.470703125 942.916015625 444.470703125 1065.44238281 c 0
 444.470703125 1144.74707031 431.282226562 1208 390 1208 c 0
EndSplineSet
EndChar

StartChar: i
Encoding: 105 105 11
Width: 400
Flags: HW
LayerCount: 2
Fore
SplineSet
305 1865.90039062 m 5
 305 1615.90039062 l 5
 88 1615.90039062 l 5
 88 1865.90039062 l 5
 305 1865.90039062 l 5
308.49609375 0 m 1
 91.49609375 0 l 1
 91.49609375 1333 l 1
 308.49609375 1333 l 1
 308.49609375 0 l 1
EndSplineSet
EndChar

StartChar: n
Encoding: 110 110 12
Width: 755
Flags: HW
LayerCount: 2
Fore
SplineSet
493 1358 m 1
 605.504882812 1351.14941406 677 1240.20019531 677 1129 c 1
 677 0 l 1
 468 0 l 1
 468 1100 l 6
 468 1153.45410156 435.724609375 1208 384 1208 c 0
 325.889648438 1208 288 1148.73535156 288 1090 c 6
 288 0 l 1
 79 0 l 1
 79 1333 l 1
 268 1333 l 1
 268 1201 l 1
 306.994140625 1272.89453125 387.997070312 1358 493 1358 c 1
EndSplineSet
EndChar

StartChar: e
Encoding: 101 101 13
Width: 708
Flags: HW
LayerCount: 2
Fore
SplineSet
344 1358 m 256
 621.256835938 1358 643.857421875 1028.96582031 643.857421875 779.030273438 c 0
 643.857421875 730.34765625 643 684.665039062 643 645 c 1
 256 645 l 1
 256 140.299804688 289 104 369 104 c 0
 447.484375 104 463.020507812 199.068359375 463.020507812 299.92578125 c 0
 463.020507812 316.258789062 462.61328125 332.743164062 462 349 c 2
 456 508 l 1
 625 508 l 1
 637.659179688 420.110351562 644.7578125 344.127929688 644.7578125 279.252929688 c 0
 644.7578125 63.982421875 566.58984375 -29 354 -29 c 0
 66 -29 47 288.299804688 47 690.299804688 c 0
 47 1018.29980469 72 1358 344 1358 c 256
344 1243 m 0
 260 1243 256 1006.29980469 256 760 c 1
 448 760 l 1
 448 1020.29980469 442 1243 344 1243 c 0
EndSplineSet
EndChar

StartChar: s
Encoding: 115 115 14
Width: 707
Flags: HW
LayerCount: 2
Fore
SplineSet
355 104 m 0
 443.635742188 104.391601562 458.875976562 198.404296875 459.04296875 287.490234375 c 0
 459.04296875 712.419921875 37 578.680664062 37 1040 c 0
 37 1227.35253906 135 1358 322 1358 c 0
 505.17578125 1358 592 1268.88183594 592 1092 c 0
 592 1028.06347656 573.388671875 962.110351562 557 922 c 1
 394 922 l 1
 401.891601562 982.502929688 408 1040.51367188 408 1115 c 0
 408 1172.58398438 376.490234375 1219 318 1219 c 0
 259.944335938 1219 236 1139.09863281 236 1063 c 0
 236 891.251953125 356.618164062 812.750976562 450.5 753.5 c 128
 582.467773438 670.211914062 665 542.481445312 665 318 c 0
 665 98.5888671875 564.748046875 -29 344 -29 c 0
 139.678710938 -29 70 110 70 285 c 0
 70 353.146484375 94.3349609375 431.96875 109 489 c 1
 279 489 l 1
 264.93359375 416.909179688 252 338.818359375 252 254 c 0
 252 172.30859375 277.326171875 104 355 104 c 0
EndSplineSet
EndChar

StartChar: N
Encoding: 78 78 15
Width: 936
Flags: HW
LayerCount: 2
Fore
SplineSet
474.760742188 1440.80175781 m 1
 631 768 l 1
 643 770 l 1
 623 1866 l 1
 826 1866 l 1
 826 0 l 1
 607 0 l 1
 487.694335938 496.680664062 l 1
487.694335938 496.680664062 m 1
 325 1212 l 1
 312 1210 l 1
 328 0 l 1
 111 0 l 1
 111 1866 l 1
 365 1866 l 1
 474.760742188 1440.80175781 l 1
EndSplineSet
EndChar

StartChar: F
Encoding: 70 70 16
Width: 657
Flags: HW
LayerCount: 2
Fore
SplineSet
662 1866 m 1
 662 1686 l 1
 330 1686 l 1
 330 1040 l 1
 606 1040 l 1
 606 862 l 1
 330 862 l 1
 330 0 l 1
 90 0 l 1
 90 1866 l 1
 662 1866 l 1
EndSplineSet
EndChar

StartChar: E
Encoding: 69 69 17
Width: 725
Flags: HW
LayerCount: 2
Fore
SplineSet
631 1866 m 1
 631 1686 l 1
 330 1686 l 1
 330 1051 l 1
 602 1051 l 1
 602 872 l 1
 330 872 l 1
 330 180 l 1
 707 180 l 1
 707 0 l 1
 90 0 l 1
 90 1866 l 1
 631 1866 l 1
EndSplineSet
EndChar

StartChar: C
Encoding: 67 67 18
Width: 894
Flags: HW
LayerCount: 2
Fore
SplineSet
454 1905 m 0
 735.547851562 1905 803 1732.86425781 803 1452 c 0
 803 1370.04882812 798.001953125 1279.61914062 792 1198 c 1
 549 1198 l 1
 557.926757812 1305.11523438 567 1411.39648438 567 1513 c 0
 567 1626.65429688 561.694335938 1753 454 1753 c 0
 326 1753 317 1442.34277344 317 938 c 0
 317 275.342773438 338 129 467 129 c 0
 573.892578125 129 596.340820312 256.344726562 596.340820312 417.189453125 c 0
 596.340820312 542.245117188 584.748046875 687.55078125 576 809 c 1
 807 809 l 1
 825.532226562 659.71875 833.591796875 528.201171875 833.591796875 416.241210938 c 0
 833.591796875 129.461914062 752.904296875 -29 454 -29 c 0
 101 -29 57 248.342773438 57 938 c 0
 57 1505.34277344 68 1905 454 1905 c 0
EndSplineSet
EndChar

StartChar: D
Encoding: 68 68 19
Width: 899
Flags: HW
LayerCount: 2
Fore
SplineSet
830.013671875 959.311523438 m 0
 829.506835938 268.92578125 814.209960938 -7.2373046875 430 0 c 1
 91 0 l 1
 91 1866 l 1
 452 1866 l 2
 798.786132812 1866 830.013671875 1458.9765625 830.013671875 959.311523438 c 0
331 160 m 1
 369.991210938 158.5546875 392.016601562 158 430 158 c 0
 569.666992188 158 588 377.350585938 588 928.850585938 c 0
 588 1532.35058594 548.666992188 1708 435 1708 c 2
 331 1708 l 1
 331 160 l 1
EndSplineSet
EndChar

StartChar: t
Encoding: 116 116 20
Width: 543
Flags: HW
LayerCount: 2
Fore
SplineSet
341 -14 m 0
 188.662109375 -14 133 57.2197265625 133 207 c 2
 133 1219 l 1
 -3 1219 l 1
 -3 1333 l 1
 124 1333 l 1
 124 1731 l 1
 341 1731 l 1
 341 1333 l 1
 487 1333 l 1
 487 1219 l 1
 341 1219 l 1
 341 253 l 2
 341 183.506835938 361.555664062 153 432 153 c 0
 458.450195312 153 483.971679688 157.55859375 509 163 c 1
 509 6 l 1
 463.057617188 -8.1357421875 399.73046875 -14 341 -14 c 0
EndSplineSet
EndChar

StartChar: c
Encoding: 99 99 21
Width: 683
Flags: HW
LayerCount: 2
Fore
SplineSet
356 104 m 0
 427.922851562 104 446.403320312 186.616210938 446.403320312 283.80859375 c 0
 446.403320312 379.859375 428.354492188 490.146484375 426 549 c 1
 611 549 l 1
 619.0546875 466.643554688 624.081054688 392.629882812 624.081054688 327.256835938 c 0
 624.081054688 94.244140625 560.221679688 -29 342 -29 c 0
 67.5498046875 -29 53 222.299804688 53 680.299804688 c 0
 53 1080.29980469 53 1358 342 1358 c 256
 548.954101562 1358 609.364257812 1218.67773438 609.364257812 1010.21289062 c 0
 609.364257812 959.848632812 605.837890625 905.447265625 600 848 c 1
 421 848 l 1
 427.333007812 901.938476562 431.56640625 959.321289062 431.56640625 1012.55761719 c 0
 431.56640625 1127.43261719 411.85546875 1223 351 1223 c 0
 271 1223 262 1080.29980469 262 678.299804688 c 0
 262 231.299804688 270 104 356 104 c 0
EndSplineSet
EndChar

StartChar: m
Encoding: 109 109 22
Width: 1119
Flags: HW
LayerCount: 2
Fore
SplineSet
855 1358 m 1
 967.794921875 1351.1484375 1034.73046875 1273.82617188 1040 1159 c 1
 1040 0 l 1
 831 0 l 1
 831 1100 l 2
 831 1154.15820312 804.9296875 1196 757 1196 c 0
 710.55078125 1196 679.13671875 1156.390625 665 1116 c 1
 665 0 l 1
 456 0 l 1
 456 1100 l 2
 456 1157.30273438 428.854492188 1196 378 1196 c 0
 325.4765625 1196 288 1153.62792969 288 1100 c 2
 288 0 l 1
 79 0 l 1
 79 1333 l 1
 278 1333 l 1
 278 1221 l 5
 316.666992188 1299 389.666992188 1358 477 1358 c 0
 564.64453125 1358 623.904296875 1278.22265625 651 1215 c 5
 692.098632812 1279.83007812 756.354492188 1352.31738281 855 1358 c 1
EndSplineSet
EndChar

StartChar: h
Encoding: 104 104 23
Width: 783
Flags: HW
LayerCount: 2
Fore
SplineSet
514 1358 m 0
 641.5 1358 701.868164062 1275.17480469 707 1159 c 1
 707 0 l 1
 490 0 l 1
 490 1100 l 2
 490 1153.45410156 467.724609375 1198 416 1198 c 0
 357.047851562 1198 309 1139.265625 309 1080 c 2
 309 0 l 1
 90 0 l 1
 90 1866 l 1
 309 1866 l 1
 309 1211 l 1
 347.994140625 1282.89453125 408.997070312 1358 514 1358 c 0
EndSplineSet
EndChar

StartChar: b
Encoding: 98 98 24
Width: 752
Flags: HW
LayerCount: 2
Fore
SplineSet
482 1358 m 1
 591.5 1358 698 1208.29980469 698 694.299804688 c 0
 698 249.5 653.5 -29 401 -29 c 0
 298.803710938 -29 223.5 42.2998046875 191 141 c 1
 156 0 l 1
 90 0 l 1
 90 1866 l 1
 291 1866 l 1
 291 1191 l 1
 329.215820312 1313.3046875 376.108398438 1358 482 1358 c 1
389 98 m 256
 471.5 98 485 282.299804688 485 690.299804688 c 0
 485 940.3046875 471.5 1198 397 1198 c 0
 331.618164062 1198 299 1129.99511719 299 1059 c 2
 299 217 l 2
 299 150.259765625 324.150390625 98 389 98 c 256
EndSplineSet
EndChar

StartChar: o
Encoding: 111 111 25
Width: 702
Flags: HW
LayerCount: 2
Fore
SplineSet
344 133 m 1
 444.944335938 152.505859375 418.959960938 295.8671875 428 416 c 1
 428 895 l 2
 428 994.081054688 428.84375 1072.02246094 409 1138.5 c 128
 398.264648438 1174.46386719 383.456054688 1196 344 1196 c 257
 238.522460938 1174.77148438 275.536132812 1020.73828125 264 895 c 1
 264 416 l 2
 264 324.606445312 266.060546875 252.0546875 285 190.5 c 128
 295.059570312 157.806640625 309.306640625 133 344 133 c 1
344 1358 m 1
 581.509765625 1345.03027344 634.708984375 1151.23339844 637 874 c 1
 637 438 l 2
 637 189.576171875 584.110351562 -29 344 -29 c 256
 106.3359375 -29 55 191.305664062 55 438 c 2
 55 874 l 1
 57.2783203125 1150.18554688 109.510742188 1343.80273438 344 1358 c 1
EndSplineSet
EndChar

StartChar: u
Encoding: 117 117 26
Width: 774
Flags: HW
LayerCount: 2
Fore
SplineSet
267 -29 m 1
 152.5 -29 74 98.599609375 74 214.299804688 c 1
 74 1333 l 1
 291 1333 l 1
 291 229 l 2
 291 175.545898438 313.275390625 121 365 121 c 0
 423.952148438 121 472 169.734375 472 229 c 2
 472 1333 l 1
 691 1333 l 1
 691 0 l 1
 492 0 l 1
 492 128 l 1
 454.5 40.2998046875 368.5 -29 267 -29 c 1
EndSplineSet
EndChar

StartChar: d
Encoding: 100 100 27
Width: 743
Flags: HW
LayerCount: 2
Back
SplineSet
306 1358 m 5
 196.5 1358 90 1208.29980469 90 694.299804688 c 4
 90 249.5 134.5 -29 387 -29 c 4
 489.196289062 -29 485.5 22.2998046875 518 121 c 5
 518 0 l 5
 698 0 l 5
 698 1866 l 5
 497 1866 l 5
 497 1221 l 5
 457.784179688 1293.3046875 411.891601562 1358 306 1358 c 5
399 98 m 260
 316.5 98 303 282.299804688 303 690.299804688 c 4
 303 940.3046875 316.5 1198 391 1198 c 4
 456.381835938 1198 489 1129.99511719 489 1059 c 6
 489 217 l 6
 489 150.259765625 463.849609375 98 399 98 c 260
EndSplineSet
Fore
SplineSet
299.969726562 -30.076171875 m 0
 385.154296875 -30.7841796875 429.8984375 9.3701171875 471 141 c 1
 471 0 l 1
 651 0 l 1
 651 1866 l 1
 450 1866 l 1
 450 1171 l 1
 425.784179688 1286.3046875 377 1358 269 1358 c 0
 159.5 1358 43 1208.29980469 43 694.299804688 c 0
 43 180.744140625 96.4833984375 -30.076171875 299.969726562 -30.076171875 c 0
352 98 m 256
 269.5 98 256 282.299804688 256 690.299804688 c 0
 256 940.3046875 269.5 1198 344 1198 c 0
 409.381835938 1198 442 1129.99511719 442 1059 c 2
 442 257 l 2
 442 190.259765625 416.849609375 98 352 98 c 256
EndSplineSet
EndChar

StartChar: T
Encoding: 84 84 28
Width: 576
Flags: HW
LayerCount: 2
Fore
SplineSet
400 1683 m 1
 400 0 l 1
 160 0 l 1
 160 1686 l 1
 -49 1686 l 1
 -49 1866 l 1
 601 1866 l 1
 601 1683 l 1
 400 1683 l 1
EndSplineSet
EndChar

StartChar: S
Encoding: 83 83 29
Width: 858
Flags: HW
LayerCount: 2
Fore
SplineSet
45 1468 m 1
 52.3037109375 1714.45898438 156.091796875 1894.84277344 403 1903 c 1
 645.44921875 1903 768 1788.57714844 768 1548 c 0
 768 1468.00195312 754.186523438 1395.43066406 739 1323 c 1
 516 1323 l 1
 524.546875 1399.921875 545 1481.38964844 545 1571 c 256
 545 1670.80371094 518.193359375 1745 418 1745 c 0
 309.381835938 1745 291 1630.64941406 291 1522 c 1
 270.765625 1135.33886719 588.251953125 1099.51269531 728 873.5 c 129
 781.920898438 782.881835938 809 670.495117188 809 518 c 1
 815.533203125 203.838867188 748.083984375 -33.595703125 434 -29 c 1
 155.6015625 -33.802734375 55.3486328125 126.237304688 61 403 c 1
 61 517.423828125 79.130859375 619.5234375 102 711 c 1
 321 711 l 1
 303.405273438 626.546875 289 527.35546875 289 424 c 1
 293.095703125 292.678710938 303.166015625 158.004882812 426 147 c 1
 553.947265625 164.637695312 536.384765625 341.170898438 545 483 c 1
 563.262695312 858.701171875 256.39453125 897.372070312 123 1121 c 129
 70.9912109375 1210.15917969 45 1319.60839844 45 1468 c 1
EndSplineSet
EndChar

StartChar: g
Encoding: 103 103 30
Width: 716
Flags: HW
LayerCount: 2
Fore
SplineSet
50 344 m 1
 57.9287109375 448.922851562 143.385742188 481.904296875 207 537 c 1
 101.778320312 604.884765625 74 756.155273438 74 934 c 0
 74 1162.15917969 126.760742188 1358 346 1358 c 0
 382.020507812 1358 414.49609375 1349.67578125 441 1337 c 1
 502 1513 l 1
 693 1513 l 1
 510 1286 l 1
 581.482421875 1212.99609375 615 1098.04003906 615 944 c 1
 611.77734375 700.951171875 568.995117188 512.208984375 346 500 c 1
 313.981445312 500 283.244140625 504.426757812 258 512 c 1
 251.576171875 493.799804688 248 475.936523438 248 455 c 0
 248 359.440429688 381.236328125 381.643554688 462 366.5 c 128
 621.40625 336.611328125 676 208.923828125 676 12 c 1
 683.486328125 -235.271484375 611.053710938 -376.392578125 361 -367 c 1
 147.794921875 -367 15 -277.4375 15 -63 c 0
 15 81.755859375 97.1630859375 141.418945312 156 227 c 1
 85.3330078125 247.666992188 50 286.666992188 50 344 c 1
265 199 m 1
 223.686523438 146.2890625 224 60.2060546875 224 -37 c 0
 224 -143.2578125 252.897460938 -246 361 -246 c 0
 474.392578125 -246 465 -125.05078125 465 -10 c 1
 475.224609375 147.984375 413.010742188 200.453125 265 199 c 1
346 1245 m 256
 283.793945312 1245 287.212890625 1176.12304688 286 1107 c 128
 285.333007812 1069 285 1018.66699219 285 956 c 0
 285 861.155273438 281.424804688 783.987304688 292.5 712.5 c 128
 298.387695312 674.497070312 308.37890625 647 346 647 c 0
 405.796875 647 401.8671875 740.098632812 403 807.5 c 128
 403.666992188 847.166992188 404 896.666992188 404 956 c 0
 404 1043.63867188 404.35546875 1151.08203125 380 1214 c 128
 372 1234.66699219 360.666992188 1245 346 1245 c 256
EndSplineSet
EndChar

StartChar: P
Encoding: 80 80 31
Width: 863
Flags: HW
LayerCount: 2
Fore
SplineSet
455 1866 m 2
 755.890625 1866 817 1655.97167969 817 1354 c 1
 818.524414062 1018.79101562 672.958984375 837.604492188 332 850 c 1
 330 891 l 1
 330 0 l 1
 90 0 l 1
 90 1866 l 1
 455 1866 l 2
330 1016 m 1
 557.161132812 996.740234375 579.118164062 1132.17285156 569 1352 c 1
 569 1523.49511719 575.375 1722 408 1722 c 2
 330 1722 l 1
 330 1016 l 1
EndSplineSet
EndChar

StartChar: p
Encoding: 112 112 32
Width: 744
Flags: HW
LayerCount: 2
Back
SplineSet
472 -25 m 5
 581.5 -25 688 124.700195312 688 638.700195312 c 4
 688 1083.5 630 1362 405 1362 c 4
 351 1362 290.5 1312.70019531 260 1192 c 5
 260 1333 l 5
 80 1333 l 5
 80 -375 l 5
 281 -375 l 5
 281 112 l 5
 320.215820312 39.6953125 366.108398438 -25 472 -25 c 5
379 1235 m 260
 461.5 1235 475 1050.70019531 475 642.700195312 c 4
 475 392.6953125 461.5 135 387 135 c 4
 321.618164062 135 289 203.004882812 289 274 c 6
 289 1076 l 6
 289 1142.74023438 314.150390625 1235 379 1235 c 260
EndSplineSet
Fore
SplineSet
471 -25 m 1
 580.5 -25 687 124.700195312 687 638.700195312 c 0
 687 1083.5 629 1362 404 1362 c 0
 350 1362 289.5 1312.70019531 259 1192 c 1
 259 1333 l 1
 79 1333 l 1
 79 -375 l 1
 280 -375 l 1
 280 112 l 1
 319.215820312 39.6953125 365.108398438 -25 471 -25 c 1
378 1235 m 256
 460.5 1235 474 1050.70019531 474 642.700195312 c 0
 474 392.6953125 460.5 135 386 135 c 0
 320.618164062 135 288 203.004882812 288 274 c 2
 288 1076 l 2
 288 1142.74023438 313.150390625 1235 378 1235 c 256
EndSplineSet
EndChar

StartChar: w
Encoding: 119 119 33
Width: 1053
Flags: HW
LayerCount: 2
Fore
SplineSet
716 502 m 1
 829 1333 l 1
 1026 1333 l 1
 794 0 l 1
 638 0 l 5
 515 902 l 1
 393 0 l 1
 237 0 l 1
 5 1333 l 1
 201 1333 l 1
 314 502 l 1
 423 1333 l 1
 607 1333 l 1
 716 502 l 1
EndSplineSet
EndChar

StartChar: y
Encoding: 121 121 34
Width: 670
Flags: HW
LayerCount: 2
Fore
SplineSet
111.032226562 -129 m 1
 103.603515625 -162.124023438 98.2529296875 -197.19140625 98.2529296875 -227.81640625 c 0
 98.2529296875 -276.883789062 111.98828125 -314.547851562 152.920898438 -314.547851562 c 0
 224.567382812 -314.547851562 222.250976562 -180.392578125 242.567382812 -58.4228515625 c 1
 -0.9677734375 1333 l 1
 212.032226562 1333 l 1
 346.032226562 272 l 1
 454.032226562 1333 l 1
 638.032226562 1333 l 1
 452.032226562 -1 l 2
 408.48046875 -313.350585938 335.567382812 -439.236328125 157.7109375 -439.236328125 c 0
 20.2822265625 -439.236328125 -36 -371.290039062 -36 -245.014648438 c 0
 -36 -210.608398438 -31.8212890625 -171.872070312 -23.9677734375 -129 c 1
 111.032226562 -129 l 1
EndSplineSet
EndChar

StartChar: v
Encoding: 118 118 35
Width: 664
Flags: HW
LayerCount: 2
Fore
SplineSet
182 1333 m 1
 335 371 l 1
 468 1333 l 1
 632 1333 l 1
 432 0 l 1
 247 0 l 1
 2 1333 l 1
 182 1333 l 1
EndSplineSet
EndChar

StartChar: q
Encoding: 113 113 36
Width: 732
Flags: HW
LayerCount: 2
Fore
SplineSet
240 -29 m 1
 80.43359375 -14.5224609375 69.435546875 155.888671875 64 334 c 1
 64 989 l 2
 64 1214.65625 131.862304688 1358 356 1358 c 0
 458.2265625 1358 514.913085938 1282.12988281 557 1219 c 1
 592 1333 l 1
 645 1333 l 1
 645 -537 l 1
 445 -537 l 1
 445 88 l 1
 404.946289062 16.3876953125 345.400390625 -29 240 -29 c 1
356 1231 m 0
 291.125976562 1231 272 1178.81347656 272 1112 c 2
 272 270 l 2
 272 205.990234375 294.9375 131 348 131 c 0
 414.302734375 131 436 198.3828125 436 270 c 2
 436 1112 l 2
 436 1179.359375 421.81640625 1231 356 1231 c 0
EndSplineSet
EndChar

StartChar: l
Encoding: 108 108 37
Width: 401
Flags: HW
LayerCount: 2
Fore
SplineSet
309 0 m 1
 90 0 l 1
 90 1866 l 1
 309 1866 l 1
 309 0 l 1
EndSplineSet
EndChar

StartChar: k
Encoding: 107 107 38
Width: 783
Flags: HW
LayerCount: 2
Fore
SplineSet
531 764 m 1
 776 0 l 1
 557 0 l 1
 363 664 l 1
 309 514 l 1
 309 0 l 1
 90 0 l 1
 90 1866 l 1
 309 1866 l 1
 309 768 l 1
 529 1333 l 1
 748 1333 l 1
 531 764 l 1
EndSplineSet
EndChar

StartChar: j
Encoding: 106 106 39
Width: 393
Flags: HW
LayerCount: 2
Fore
SplineSet
299.50390625 1865.90039062 m 1
 299.50390625 1615.90039062 l 1
 82.50390625 1615.90039062 l 1
 82.50390625 1865.90039062 l 1
 299.50390625 1865.90039062 l 1
-90 -145 m 1
 68.6640625 -151.563476562 83.0283203125 -36.251953125 84 121 c 2
 84 1333 l 1
 303 1333 l 1
 303 152 l 1
 304.951171875 -150.712890625 220.258789062 -356.778320312 -90 -342 c 1
 -90 -145 l 1
EndSplineSet
EndChar

StartChar: f
Encoding: 102 102 40
Width: 534
Flags: HW
LayerCount: 2
Fore
SplineSet
434 1653 m 0
 363.557617188 1653 343 1622.49902344 343 1553 c 2
 343 1333 l 1
 489 1333 l 1
 489 1219 l 1
 343 1219 l 1
 343 0 l 1
 126 0 l 1
 126 1219 l 1
 -1 1219 l 1
 -1 1333 l 1
 135 1333 l 1
 135 1584 l 2
 135 1744.83300781 190.180664062 1825 353 1825 c 0
 408.321289062 1825 468.548828125 1819.15039062 511 1805 c 1
 511 1645 l 1
 485.729492188 1651.59277344 461.869140625 1653 434 1653 c 0
EndSplineSet
EndChar

StartChar: V
Encoding: 86 86 41
Width: 844
Flags: HW
LayerCount: 2
Fore
SplineSet
858 1866 m 1
 535 0 l 1
 295 0 l 1
 -28 1866 l 1
 209 1866 l 1
 432 584 l 1
 635 1866 l 1
 858 1866 l 1
EndSplineSet
EndChar

StartChar: W
Encoding: 87 87 42
Width: 1327
Flags: HW
LayerCount: 2
Fore
SplineSet
1323 1866 m 1
 1069 0 l 1
 834 0 l 1
 658 1147 l 1
 483 0 l 1
 244 0 l 1
 -10 1866 l 1
 219 1866 l 1
 383 600 l 1
 543 1866 l 1
 770 1866 l 1
 936 543 l 1
 1094 1866 l 1
 1323 1866 l 1
EndSplineSet
EndChar

StartChar: Q
Encoding: 81 81 43
Width: 929
Flags: HW
LayerCount: 2
Fore
SplineSet
458 1778 m 0
 369.784179688 1778 350.541015625 1681.44824219 338 1584.5 c 129
 316.38671875 1392.30957031 323.069335938 1183.4921875 321 938 c 1
 323.033203125 690.245117188 316.419921875 483.0390625 338 288.5 c 129
 350.533203125 190.649414062 369.450195312 94 458 94 c 0
 547.607421875 94 566.397460938 190.1015625 579 288.5 c 129
 600.59765625 482.08984375 593.936523438 691.046875 596 938 c 1
 593.9609375 1184.29785156 600.59765625 1391.35839844 579 1584.5 c 129
 566.350585938 1682.29492188 547.3515625 1778 458 1778 c 0
856 938 m 257
 838.947265625 489.612304688 930.967773438 -46.0576171875 458 -35 c 257
 -14.005859375 -46.0185546875 78.6337890625 487.772460938 61 938 c 257
 78.505859375 1387.52832031 -13.7861328125 1918.08886719 458 1909 c 257
 930.016601562 1920.53613281 838.8984375 1388.23046875 856 938 c 257
EndSplineSet
EndChar

StartChar: K
Encoding: 75 75 44
Width: 833
Flags: HW
LayerCount: 2
Fore
SplineSet
791 1866 m 1
 578 1046 l 5
 819 0 l 1
 575 0 l 1
 394 858 l 1
 330 655 l 1
 330 0 l 1
 90 0 l 1
 90 1866 l 1
 330 1866 l 1
 330 964 l 1
 551 1866 l 1
 791 1866 l 1
EndSplineSet
EndChar

StartChar: J
Encoding: 74 74 45
Width: 514
Flags: HW
LayerCount: 2
Fore
SplineSet
3 199 m 1
 171.7578125 192.376953125 189.858398438 314.549804688 190 483 c 2
 190 1866 l 1
 429 1866 l 1
 429 516 l 1
 430.971679688 191.284179688 337.084960938 -29.408203125 3 -12 c 1
 3 199 l 1
EndSplineSet
EndChar

StartChar: Z
Encoding: 90 90 46
Width: 662
Flags: HW
LayerCount: 2
Fore
SplineSet
48 0 m 1
 48 147 l 1
 373 1679 l 1
 56 1679 l 1
 56 1866 l 1
 625 1866 l 1
 625 1747 l 1
 296 184 l 1
 613 184 l 1
 613 0 l 1
 48 0 l 1
EndSplineSet
EndChar

StartChar: Y
Encoding: 89 89 47
Width: 760
Flags: HW
LayerCount: 2
Fore
SplineSet
782 1866 m 1
 497 410 l 1
 497 0 l 1
 258 0 l 1
 258 410 l 1
 -43 1866 l 1
 194 1866 l 1
 376 870 l 1
 550 1866 l 1
 782 1866 l 1
EndSplineSet
EndChar

StartChar: z
Encoding: 122 122 48
Width: 628
Flags: HW
LayerCount: 2
Fore
SplineSet
47 0 m 1
 47 127 l 1
 336 1167 l 1
 55 1167 l 1
 55 1333 l 1
 571 1333 l 1
 571 1210 l 1
 287 166 l 1
 561 166 l 1
 561 0 l 1
 47 0 l 1
EndSplineSet
EndChar

StartChar: x
Encoding: 120 120 49
Width: 602
Flags: HW
LayerCount: 2
Fore
SplineSet
213 0 m 1
 33 0 l 1
 209 690 l 1
 33 1333 l 1
 191 1333 l 1
 287 991 l 1
 375 1333 l 1
 559 1333 l 1
 383 655 l 1
 570 0 l 1
 402 0 l 1
 303 350 l 1
 213 0 l 1
EndSplineSet
EndChar

StartChar: X
Encoding: 88 88 50
Width: 708
Flags: HW
LayerCount: 2
Fore
SplineSet
249 1866 m 1
 350 1430 l 1
 450 1866 l 1
 679 1866 l 1
 466 930 l 1
 683 0 l 1
 475 0 l 1
 362 471 l 1
 255 0 l 1
 26 0 l 1
 245 963 l 1
 30 1866 l 1
 249 1866 l 1
EndSplineSet
EndChar

StartChar: bracketleft
Encoding: 91 91 52
Width: 583
Flags: HW
LayerCount: 2
Fore
SplineSet
327 60 m 1
 508 60 l 1
 508 -100 l 1
 92 -100 l 1
 92 1963 l 1
 508 1963 l 1
 508 1803 l 1
 327 1803 l 1
 327 60 l 1
EndSplineSet
EndChar

StartChar: bracketright
Encoding: 93 93 53
Width: 582
Flags: HW
LayerCount: 2
Fore
SplineSet
254 1803 m 1
 73 1803 l 1
 73 1963 l 1
 489 1963 l 1
 489 -100 l 1
 73 -100 l 1
 73 60 l 1
 254 60 l 1
 254 1803 l 1
EndSplineSet
EndChar

StartChar: slash
Encoding: 47 47 54
Width: 556
Flags: HW
LayerCount: 2
Fore
SplineSet
246 1 m 1
 11 1 l 1
 311 1865 l 1
 546 1865 l 1
 246 1 l 1
EndSplineSet
EndChar

StartChar: fraction
Encoding: 8260 8260 55
Width: 556
Flags: HW
LayerCount: 2
Fore
SplineSet
246 1 m 1
 11 1 l 1
 311 1865 l 1
 546 1865 l 1
 246 1 l 1
EndSplineSet
EndChar

StartChar: backslash
Encoding: 92 92 56
Width: 585
Flags: HW
LayerCount: 2
Fore
SplineSet
15 1865 m 1
 250 1865 l 1
 550 1 l 1
 315 1 l 1
 15 1865 l 1
EndSplineSet
EndChar

StartChar: one
Encoding: 49 49 57
Width: 742
Flags: HW
LayerCount: 2
Fore
SplineSet
691 183 m 1
 691 0 l 1
 81 0 l 1
 81 180 l 1
 270 180 l 1
 270 1722 l 1
 317 1866 l 1
 510 1866 l 1
 510 183 l 1
 691 183 l 1
81 1826 m 1
 317 1866 l 1
 317 1676 l 1
 81 1646 l 1
 81 1826 l 1
EndSplineSet
EndChar

StartChar: germandbls
Encoding: 223 223 58
Width: 901
Flags: HW
LayerCount: 2
Fore
SplineSet
591.100585938 532 m 1
 586.552734375 731.7265625 577.083007812 912.953125 389.100585938 922 c 1
 389.100585938 1083 l 1
 537.333007812 1083 544.100585938 1245.42480469 544.100585938 1393 c 0
 544.100585938 1522.40234375 556.778320312 1716 433.100585938 1716 c 256
 309.618164062 1716 321.100585938 1519.80566406 321.100585938 1393 c 2
 321.100585938 0 l 1
 81.1005859375 0 l 1
 81.1005859375 1393 l 1
 78.017578125 1681.22851562 144.376953125 1878.31933594 432.100585938 1866 c 1
 719.149414062 1872.73535156 789.904296875 1683.50195312 788.100585938 1393 c 1
 788.100585938 1209.15722656 757.212890625 1057.28613281 614.100585938 1018 c 1
 616.100585938 1006 l 1
 796.094726562 954.942382812 851.37890625 766.745117188 855.100585938 532 c 1
 850.03515625 258.291015625 811.709960938 12.3232421875 550.100585938 0 c 1
 378.100585938 0 l 1
 378.100585938 162 l 1
 423.100585938 162 l 2
 605.504882812 162 591.100585938 347.091796875 591.100585938 532 c 1
EndSplineSet
EndChar

StartChar: R
Encoding: 82 82 59
Width: 888
Flags: HW
LayerCount: 2
Fore
SplineSet
595 0 m 1
 552.15625 130.80078125 544.153320312 279.436523438 544.153320312 443.01953125 c 0
 544.153320312 540.568359375 546.999023438 643.432617188 547 751 c 0
 547 859.833007812 481.979492188 918 391 918 c 2
 330 918 l 1
 330 0 l 1
 90 0 l 1
 90 1866 l 1
 468 1866 l 6
 723.13671875 1865.91894531 821.138671875 1688.953125 821.138671875 1412.57324219 c 4
 821.138671875 1197.0859375 780.041992188 1026.33105469 584 1000 c 1
 584 994 l 1
 669.768554688 973.686523438 777 860.35546875 777 753 c 0
 777 488.400390625 781.71875 212.62109375 856 0 c 1
 595 0 l 1
330 1076 m 1
 346.306640625 1074.65917969 361.504882812 1073.9921875 375.66796875 1073.9921875 c 0
 575.791015625 1073.9921875 581.05859375 1211.59667969 581.05859375 1435.44140625 c 4
 581.05859375 1583.32128906 574.6328125 1722 427 1722 c 6
 330 1722 l 1
 330 1076 l 1
EndSplineSet
EndChar
